# xmcd CD database file
#
# Track frame offsets:
#	150
#	29130
#	43543
#	68534
#	96516
#	112850
#	141247
#	172290
#	202461
#
# Disc length: 2915 seconds
#
# Revision: 0
# Processed by: cddbd v1.5.2PL0 Copyright (c) Steve Scherf et al.
# Submitted via: CDex 1.51
#
DISCID=8c0b6109
DTITLE=Bamboleo - Yo No Me Parezco A Nadie
DYEAR=1998
DGENRE=Salsa
TTITLE0=Opening Estudio 10
TTITLE1=Yo No Me Parezco A Nadie
TTITLE2=Si No Hablaras Tanto
TTITLE3=Amor Sin Traspaso
TTITLE4=Tu y Yo, Una Misma Cosa
TTITLE5=Pelicula Vieja
TTITLE6=Cuentales
TTITLE7=Mirando Al Cielo
TTITLE8=Con Un Canto En El Pecho
EXTD=YEAR: 1998
EXTT0=
EXTT1=
EXTT2=
EXTT3=
EXTT4=
EXTT5=
EXTT6=
EXTT7=
EXTT8=
PLAYORDER=
